<svg xmlns="http://www.w3.org/2000/svg" xmlns:xlink="http://www.w3.org/1999/xlink" width="851" zoomAndPan="magnify" viewBox="0 0 638.25 236.249991" height="315" preserveAspectRatio="xMidYMid meet" version="1.0"><defs><clipPath id="3f282a9e6c"><path d="M 37.554688 92 L 126 92 L 126 183 L 37.554688 183 Z M 37.554688 92 " clip-rule="nonzero"/></clipPath><clipPath id="49dc690530"><path d="M 272 41.71875 L 360 41.71875 L 360 193.132812 L 272 193.132812 Z M 272 41.71875 " clip-rule="nonzero"/></clipPath></defs><g clip-path="url(#3f282a9e6c)"><path fill="#404137" d="M 125.230469 119.519531 C 125.230469 117.820312 124.335938 116.261719 122.871094 115.421875 L 83.753906 92.945312 C 83.089844 92.558594 82.351562 92.355469 81.597656 92.324219 L 81.195312 92.324219 C 80.449219 92.355469 79.707031 92.558594 79.035156 92.945312 L 39.921875 115.421875 C 38.464844 116.265625 37.554688 117.824219 37.554688 119.519531 L 37.640625 180.039062 C 37.640625 180.882812 38.078125 181.664062 38.820312 182.078125 C 39.546875 182.511719 40.445312 182.511719 41.167969 182.078125 L 64.414062 168.789062 C 65.886719 167.917969 66.78125 166.378906 66.78125 164.695312 L 66.78125 136.421875 C 66.78125 134.738281 67.675781 133.175781 69.140625 132.339844 L 79.039062 126.648438 C 79.773438 126.222656 80.582031 126.011719 81.40625 126.011719 C 82.210938 126.011719 83.039062 126.222656 83.753906 126.648438 L 93.652344 132.339844 C 95.113281 133.175781 96.011719 134.738281 96.011719 136.421875 L 96.011719 164.695312 C 96.011719 166.378906 96.917969 167.925781 98.378906 168.789062 L 121.621094 182.078125 C 122.351562 182.511719 123.257812 182.511719 123.980469 182.078125 C 124.703125 181.664062 125.15625 180.882812 125.15625 180.039062 L 125.230469 119.523438 " fill-opacity="1" fill-rule="evenodd"/></g><g clip-path="url(#49dc690530)"><path fill="#404137" d="M 330.46875 151.03125 C 330.46875 151.449219 330.242188 151.839844 329.875 152.050781 L 316.445312 159.785156 C 316.078125 159.992188 315.628906 159.992188 315.261719 159.785156 L 301.828125 152.050781 C 301.460938 151.84375 301.238281 151.453125 301.238281 151.03125 L 301.238281 135.542969 C 301.238281 135.121094 301.460938 134.730469 301.828125 134.519531 L 315.261719 126.773438 C 315.628906 126.5625 316.078125 126.5625 316.445312 126.773438 L 329.878906 134.519531 C 330.246094 134.730469 330.46875 135.121094 330.46875 135.542969 Z M 334.097656 36.328125 C 333.367188 35.921875 332.472656 35.929688 331.75 36.355469 C 331.027344 36.777344 330.585938 37.550781 330.585938 38.386719 L 330.585938 98.320312 C 330.585938 98.910156 330.269531 99.457031 329.757812 99.75 C 329.25 100.046875 328.617188 100.046875 328.105469 99.75 L 318.308594 94.117188 C 316.847656 93.277344 315.046875 93.277344 313.585938 94.117188 L 274.457031 116.664062 C 272.996094 117.507812 272.09375 119.0625 272.09375 120.75 L 272.09375 165.851562 C 272.09375 167.535156 272.996094 169.09375 274.457031 169.9375 L 313.585938 192.503906 C 315.050781 193.347656 316.851562 193.347656 318.3125 192.503906 L 357.445312 169.941406 C 358.90625 169.097656 359.808594 167.539062 359.808594 165.855469 L 359.808594 53.425781 C 359.808594 51.714844 358.878906 50.140625 357.382812 49.304688 L 334.097656 36.335938 " fill-opacity="1" fill-rule="evenodd"/></g><path fill="#404137" d="M 474.113281 135.136719 C 475.570312 134.292969 476.460938 132.742188 476.460938 131.058594 L 476.460938 120.128906 C 476.460938 118.449219 475.570312 116.894531 474.109375 116.050781 L 435.230469 93.511719 C 433.765625 92.664062 431.964844 92.664062 430.496094 93.503906 L 391.378906 116.050781 C 389.917969 116.894531 389.015625 118.453125 389.015625 120.136719 L 389.015625 165.226562 C 389.015625 166.921875 389.929688 168.488281 391.402344 169.324219 L 430.242188 191.441406 C 431.675781 192.257812 433.429688 192.265625 434.875 191.464844 L 458.386719 178.417969 C 459.132812 178.003906 459.597656 177.222656 459.601562 176.371094 C 459.605469 175.519531 459.152344 174.734375 458.414062 174.308594 L 419.050781 151.753906 C 418.3125 151.332031 417.863281 150.550781 417.863281 149.707031 L 417.863281 135.574219 C 417.863281 134.734375 418.3125 133.953125 419.042969 133.53125 L 431.296875 126.480469 C 432.027344 126.058594 432.925781 126.058594 433.65625 126.480469 L 445.914062 133.53125 C 446.644531 133.953125 447.097656 134.734375 447.097656 135.574219 L 447.097656 146.695312 C 447.097656 147.539062 447.546875 148.316406 448.277344 148.738281 C 449.011719 149.160156 449.914062 149.15625 450.644531 148.734375 L 474.074219 135.136719 " fill-opacity="1" fill-rule="evenodd"/><path fill="#83cd29" d="M 196.386719 93.269531 C 197.847656 92.425781 199.648438 92.425781 201.109375 93.269531 L 240.234375 115.8125 C 241.699219 116.652344 242.597656 118.210938 242.597656 119.898438 L 242.597656 165.015625 C 242.597656 166.699219 241.699219 168.257812 240.238281 169.101562 L 201.113281 191.664062 C 199.652344 192.503906 197.851562 192.503906 196.386719 191.664062 L 157.269531 169.101562 C 155.808594 168.257812 154.90625 166.703125 154.90625 165.015625 L 154.90625 119.894531 C 154.90625 118.210938 155.808594 116.652344 157.269531 115.8125 L 196.390625 93.269531 " fill-opacity="1" fill-rule="evenodd"/><path fill="#83cd29" d="M 550.0625 192.308594 C 548.714844 192.308594 547.375 191.953125 546.195312 191.273438 L 533.875 183.996094 C 532.035156 182.96875 532.933594 182.605469 533.539062 182.394531 C 535.996094 181.542969 536.492188 181.347656 539.109375 179.863281 C 539.382812 179.710938 539.746094 179.769531 540.027344 179.933594 L 549.488281 185.542969 C 549.832031 185.734375 550.316406 185.734375 550.632812 185.542969 L 587.523438 164.285156 C 587.871094 164.089844 588.089844 163.691406 588.089844 163.285156 L 588.089844 120.777344 C 588.089844 120.363281 587.871094 119.972656 587.519531 119.761719 L 550.640625 98.519531 C 550.296875 98.324219 549.84375 98.324219 549.5 98.519531 L 512.628906 119.769531 C 512.273438 119.972656 512.046875 120.375 512.046875 120.777344 L 512.046875 163.285156 C 512.046875 163.691406 512.273438 164.078125 512.628906 164.273438 L 522.734375 170.101562 C 528.21875 172.839844 531.578125 169.613281 531.578125 166.375 L 531.578125 124.40625 C 531.578125 123.8125 532.054688 123.34375 532.648438 123.34375 L 537.328125 123.34375 C 537.914062 123.34375 538.394531 123.8125 538.394531 124.40625 L 538.394531 166.375 C 538.394531 173.683594 534.410156 177.871094 527.472656 177.871094 C 525.339844 177.871094 523.660156 177.871094 518.972656 175.566406 L 509.296875 170.007812 C 506.910156 168.628906 505.429688 166.046875 505.429688 163.285156 L 505.429688 120.777344 C 505.429688 118.015625 506.910156 115.4375 509.296875 114.066406 L 546.195312 92.78125 C 548.527344 91.460938 551.628906 91.460938 553.945312 92.78125 L 590.839844 114.066406 C 593.230469 115.445312 594.710938 118.015625 594.710938 120.777344 L 594.710938 163.285156 C 594.710938 166.046875 593.230469 168.617188 590.839844 170.007812 L 553.976562 191.273438 C 552.796875 191.957031 551.460938 192.308594 550.09375 192.308594 " fill-opacity="1" fill-rule="nonzero"/><path fill="#83cd29" d="M 561.449219 163.019531 C 545.304688 163.019531 541.921875 155.621094 541.921875 149.414062 C 541.921875 148.824219 542.398438 148.355469 542.988281 148.355469 L 547.757812 148.355469 C 548.292969 148.355469 548.734375 148.734375 548.820312 149.257812 C 549.539062 154.105469 551.6875 156.550781 561.449219 156.550781 C 569.21875 156.550781 572.53125 154.796875 572.53125 150.679688 C 572.53125 148.304688 571.59375 146.542969 559.515625 145.363281 C 549.417969 144.367188 543.175781 142.140625 543.175781 134.078125 C 543.175781 126.644531 549.449219 122.210938 559.96875 122.210938 C 571.789062 122.210938 577.636719 126.308594 578.378906 135.09375 C 578.40625 135.398438 578.300781 135.6875 578.097656 135.914062 C 577.894531 136.125 577.613281 136.253906 577.316406 136.253906 L 572.527344 136.253906 C 572.03125 136.253906 571.59375 135.902344 571.492188 135.421875 C 570.34375 130.320312 567.546875 128.691406 559.96875 128.691406 C 551.484375 128.691406 550.5 131.640625 550.5 133.851562 C 550.5 136.53125 551.660156 137.3125 563.117188 138.824219 C 574.457031 140.324219 579.84375 142.441406 579.84375 150.398438 C 579.84375 158.421875 573.136719 163.019531 561.449219 163.019531 " fill-opacity="1" fill-rule="nonzero"/><path fill="#83cd29" d="M 432.265625 133.027344 C 432.546875 132.863281 432.890625 132.863281 433.171875 133.027344 L 440.679688 137.351562 C 440.960938 137.511719 441.132812 137.8125 441.132812 138.136719 L 441.132812 146.792969 C 441.132812 147.117188 440.960938 147.414062 440.679688 147.578125 L 433.171875 151.902344 C 432.890625 152.0625 432.546875 152.0625 432.265625 151.902344 L 424.761719 147.578125 C 424.480469 147.414062 424.308594 147.117188 424.308594 146.792969 L 424.308594 138.136719 C 424.308594 137.8125 424.480469 137.511719 424.761719 137.351562 L 432.265625 133.027344 " fill-opacity="1" fill-rule="evenodd"/></svg>