<svg xmlns="http://www.w3.org/2000/svg" xmlns:xlink="http://www.w3.org/1999/xlink" width="851" zoomAndPan="magnify" viewBox="0 0 638.25 236.249991" height="315" preserveAspectRatio="xMidYMid meet" version="1.0"><defs><g/><clipPath id="3653369f50"><path d="M 0.636719 0 L 636.867188 0 L 636.867188 235.503906 L 0.636719 235.503906 Z M 0.636719 0 " clip-rule="nonzero"/></clipPath></defs><g clip-path="url(#3653369f50)"><path fill="#ffffff" d="M 0.636719 0 L 636.867188 0 L 636.867188 235.503906 L 0.636719 235.503906 Z M 0.636719 0 " fill-opacity="1" fill-rule="nonzero"/><path fill="#ffffff" d="M 0.636719 0 L 636.867188 0 L 636.867188 235.503906 L 0.636719 235.503906 Z M 0.636719 0 " fill-opacity="1" fill-rule="nonzero"/></g><path fill="#00d8ff" d="M 145.832031 117.550781 C 145.832031 118.417969 145.746094 119.273438 145.578125 120.125 C 145.410156 120.976562 145.160156 121.800781 144.828125 122.601562 C 144.496094 123.402344 144.089844 124.164062 143.605469 124.882812 C 143.125 125.605469 142.578125 126.269531 141.964844 126.882812 C 141.351562 127.496094 140.6875 128.042969 139.964844 128.527344 C 139.246094 129.007812 138.484375 129.414062 137.683594 129.746094 C 136.882812 130.078125 136.058594 130.328125 135.207031 130.496094 C 134.355469 130.664062 133.5 130.75 132.632812 130.75 C 131.765625 130.75 130.90625 130.664062 130.054688 130.496094 C 129.207031 130.328125 128.378906 130.078125 127.578125 129.746094 C 126.777344 129.414062 126.019531 129.007812 125.296875 128.527344 C 124.578125 128.042969 123.910156 127.496094 123.296875 126.882812 C 122.683594 126.269531 122.136719 125.605469 121.65625 124.882812 C 121.175781 124.164062 120.765625 123.402344 120.4375 122.601562 C 120.105469 121.800781 119.855469 120.976562 119.683594 120.125 C 119.515625 119.273438 119.429688 118.417969 119.429688 117.550781 C 119.429688 116.683594 119.515625 115.824219 119.683594 114.976562 C 119.855469 114.125 120.105469 113.300781 120.4375 112.5 C 120.765625 111.699219 121.175781 110.9375 121.65625 110.214844 C 122.136719 109.496094 122.683594 108.828125 123.296875 108.214844 C 123.910156 107.601562 124.578125 107.054688 125.296875 106.574219 C 126.019531 106.09375 126.777344 105.6875 127.578125 105.355469 C 128.378906 105.023438 129.207031 104.773438 130.054688 104.601562 C 130.90625 104.433594 131.765625 104.351562 132.632812 104.351562 C 133.5 104.351562 134.355469 104.433594 135.207031 104.601562 C 136.058594 104.773438 136.882812 105.023438 137.683594 105.355469 C 138.484375 105.6875 139.246094 106.09375 139.964844 106.574219 C 140.6875 107.054688 141.351562 107.601562 141.964844 108.214844 C 142.578125 108.828125 143.125 109.496094 143.605469 110.214844 C 144.089844 110.9375 144.496094 111.699219 144.828125 112.5 C 145.160156 113.300781 145.410156 114.125 145.578125 114.976562 C 145.746094 115.824219 145.832031 116.683594 145.832031 117.550781 Z M 145.832031 117.550781 " fill-opacity="1" fill-rule="nonzero"/><path fill="#00d8ff" d="M 132.632812 147.816406 C 116.664062 148.203125 101.035156 146.089844 85.742188 141.480469 C 78.664062 139.234375 72.226562 135.789062 66.433594 131.140625 C 65.339844 130.355469 64.339844 129.457031 63.4375 128.457031 C 62.535156 127.453125 61.75 126.363281 61.085938 125.191406 C 60.417969 124.019531 59.882812 122.789062 59.484375 121.5 C 59.082031 120.210938 58.824219 118.894531 58.710938 117.550781 C 58.710938 108.820312 68.296875 100.269531 84.359375 94.671875 C 100.066406 89.679688 116.15625 87.308594 132.632812 87.554688 C 148.886719 87.328125 164.765625 89.65625 180.269531 94.542969 C 187.082031 96.714844 193.308594 100 198.949219 104.398438 C 200.027344 105.148438 201.007812 106.007812 201.898438 106.972656 C 202.785156 107.9375 203.558594 108.992188 204.214844 110.128906 C 204.871094 111.265625 205.398438 112.457031 205.792969 113.710938 C 206.1875 114.960938 206.441406 116.242188 206.554688 117.550781 C 206.554688 126.621094 195.835938 135.8125 178.566406 141.527344 C 163.578125 145.984375 148.265625 148.082031 132.632812 147.816406 Z M 132.632812 93.867188 C 116.871094 93.65625 101.472656 95.914062 86.4375 100.636719 C 71.652344 105.796875 65.023438 112.851562 65.023438 117.535156 C 65.023438 122.433594 72.148438 130.136719 87.789062 135.488281 C 102.414062 139.875 117.363281 141.878906 132.632812 141.5 C 147.589844 141.769531 162.242188 139.777344 176.589844 135.535156 C 192.824219 130.152344 200.214844 122.4375 200.214844 117.550781 C 199.949219 115.855469 199.347656 114.285156 198.421875 112.839844 C 197.492188 111.394531 196.3125 110.195312 194.882812 109.246094 C 189.835938 105.34375 184.273438 102.433594 178.195312 100.511719 C 163.363281 95.855469 148.175781 93.640625 132.632812 93.867188 Z M 132.632812 93.867188 " fill-opacity="1" fill-rule="nonzero"/><path fill="#00d8ff" d="M 102.640625 183.386719 C 100.132812 183.445312 97.78125 182.867188 95.585938 181.65625 C 88.023438 177.292969 85.40625 164.71875 88.578125 148.003906 C 92.101562 131.90625 98.085938 116.785156 106.53125 102.632812 C 114.453125 88.441406 124.402344 75.847656 136.378906 64.859375 C 141.664062 60.042969 147.621094 56.289062 154.25 53.597656 C 155.4375 53.039062 156.671875 52.617188 157.953125 52.332031 C 159.234375 52.046875 160.53125 51.90625 161.847656 51.90625 C 163.160156 51.90625 164.457031 52.046875 165.738281 52.332031 C 167.019531 52.617188 168.253906 53.039062 169.445312 53.597656 C 177.304688 58.128906 179.910156 72.003906 176.238281 89.8125 C 172.613281 105.027344 166.773438 119.34375 158.730469 132.757812 C 151.089844 146.78125 141.449219 159.265625 129.816406 170.207031 C 124.335938 175.21875 118.136719 179.070312 111.214844 181.765625 C 108.449219 182.792969 105.589844 183.332031 102.640625 183.386719 Z M 112 105.769531 C 103.945312 119.316406 98.210938 133.78125 94.789062 149.167969 C 91.867188 164.558594 94.671875 173.816406 98.75 176.167969 C 102.972656 178.613281 113.226562 176.296875 125.675781 165.417969 C 136.78125 154.9375 145.984375 142.984375 153.277344 129.566406 C 160.984375 116.742188 166.582031 103.058594 170.074219 88.507812 C 173.527344 71.746094 170.542969 61.480469 166.308594 59.042969 C 164.703125 58.425781 163.042969 58.160156 161.328125 58.242188 C 159.609375 58.324219 157.984375 58.746094 156.445312 59.511719 C 150.546875 61.945312 145.25 65.320312 140.550781 69.636719 C 129.109375 80.164062 119.605469 92.21875 112.039062 105.800781 Z M 112 105.769531 " fill-opacity="1" fill-rule="nonzero"/><path fill="#00d8ff" d="M 162.605469 183.457031 C 155.453125 183.457031 146.363281 179.125 136.902344 170.988281 C 124.714844 159.898438 114.597656 147.160156 106.558594 132.777344 C 98.21875 118.824219 92.28125 103.914062 88.742188 88.050781 C 87.207031 81.058594 86.929688 74.019531 87.910156 66.929688 C 88.019531 65.625 88.273438 64.347656 88.667969 63.097656 C 89.058594 61.847656 89.582031 60.65625 90.238281 59.523438 C 90.890625 58.386719 91.660156 57.339844 92.542969 56.371094 C 93.429688 55.40625 94.40625 54.546875 95.480469 53.796875 C 103.332031 49.25 116.652344 53.925781 130.25 65.996094 C 141.621094 76.734375 151.105469 88.941406 158.710938 102.605469 C 167.042969 116.234375 173.042969 130.820312 176.714844 146.363281 C 178.320312 153.617188 178.558594 160.914062 177.4375 168.253906 C 177.304688 169.597656 177.03125 170.910156 176.617188 172.191406 C 176.199219 173.476562 175.652344 174.699219 174.96875 175.863281 C 174.289062 177.027344 173.492188 178.105469 172.578125 179.097656 C 171.664062 180.089844 170.65625 180.972656 169.550781 181.746094 C 167.390625 182.941406 165.074219 183.511719 162.605469 183.457031 Z M 112.023438 129.597656 C 119.734375 143.34375 129.402344 155.539062 141.019531 166.183594 C 152.894531 176.402344 162.316406 178.597656 166.367188 176.21875 C 170.589844 173.761719 173.707031 163.742188 170.496094 147.523438 C 166.957031 132.683594 161.199219 118.761719 153.222656 105.753906 C 145.96875 92.671875 136.914062 80.988281 126.058594 70.695312 C 113.257812 59.332031 102.878906 56.792969 98.648438 59.242188 C 97.316406 60.324219 96.257812 61.628906 95.472656 63.15625 C 94.6875 64.683594 94.238281 66.304688 94.132812 68.015625 C 93.289062 74.339844 93.558594 80.613281 94.941406 86.839844 C 98.34375 102.011719 104.039062 116.269531 112.027344 129.609375 Z M 112.023438 129.597656 " fill-opacity="1" fill-rule="nonzero"/><g fill="#00d8ff" fill-opacity="1"><g transform="translate(231.884908, 152.062146)"><g><path d="M 25.890625 -63.671875 C 33.171875 -63.671875 38.613281 -62.160156 42.21875 -59.140625 C 45.820312 -56.128906 47.625 -51.992188 47.625 -46.734375 C 47.625 -42.953125 46.707031 -39.789062 44.875 -37.25 C 43.039062 -34.707031 40.46875 -32.800781 37.15625 -31.53125 C 33.84375 -30.257812 29.972656 -29.625 25.546875 -29.625 L 48.515625 0 L 40.625 0 L 18.09375 -29.625 L 14.09375 -29.625 L 14.09375 0 L 7.71875 0 L 7.71875 -63.671875 Z M 25.546875 -35.828125 C 30.453125 -35.828125 34.25 -36.710938 36.9375 -38.484375 C 39.625 -40.265625 40.96875 -43.015625 40.96875 -46.734375 C 40.96875 -49.984375 39.816406 -52.582031 37.515625 -54.53125 C 35.210938 -56.488281 31.753906 -57.46875 27.140625 -57.46875 L 14.09375 -57.46875 L 14.09375 -35.828125 Z M 25.546875 -35.828125 "/></g></g></g><g fill="#00d8ff" fill-opacity="1"><g transform="translate(284.382242, 152.062146)"><g><path d="M 29.09375 1.15625 C 24.007812 1.15625 19.617188 0.046875 15.921875 -2.171875 C 12.222656 -4.390625 9.394531 -7.375 7.4375 -11.125 C 5.488281 -14.882812 4.515625 -18.976562 4.515625 -23.40625 C 4.515625 -27.726562 5.519531 -31.796875 7.53125 -35.609375 C 9.539062 -39.421875 12.394531 -42.492188 16.09375 -44.828125 C 19.789062 -47.160156 24.003906 -48.328125 28.734375 -48.328125 C 33.285156 -48.328125 37.421875 -47.265625 41.140625 -45.140625 C 44.867188 -43.015625 47.796875 -40.054688 49.921875 -36.265625 C 52.054688 -32.484375 53.125 -28.226562 53.125 -23.5 L 53.125 -23.0625 L 10.734375 -23.0625 C 10.847656 -19.457031 11.6875 -16.265625 13.25 -13.484375 C 14.820312 -10.703125 16.96875 -8.539062 19.6875 -7 C 22.40625 -5.46875 25.539062 -4.703125 29.09375 -4.703125 C 33.289062 -4.703125 36.71875 -5.675781 39.375 -7.625 C 42.039062 -9.570312 44.40625 -12.234375 46.46875 -15.609375 L 51.53125 -12.953125 C 49.21875 -8.515625 46.15625 -5.050781 42.34375 -2.5625 C 38.53125 -0.0820312 34.113281 1.15625 29.09375 1.15625 Z M 46.46875 -28.375 C 45.289062 -33.050781 43.117188 -36.570312 39.953125 -38.9375 C 36.785156 -41.300781 33.078125 -42.484375 28.828125 -42.484375 C 24.503906 -42.484375 20.847656 -41.3125 17.859375 -38.96875 C 14.878906 -36.632812 12.710938 -33.101562 11.359375 -28.375 Z M 46.46875 -28.375 "/></g></g></g><g fill="#00d8ff" fill-opacity="1"><g transform="translate(342.022899, 152.062146)"><g><path d="M 28.640625 1.15625 C 24.148438 1.15625 20.070312 0.03125 16.40625 -2.21875 C 12.738281 -4.46875 9.835938 -7.5 7.703125 -11.3125 C 5.578125 -15.125 4.515625 -19.242188 4.515625 -23.671875 C 4.515625 -28.109375 5.59375 -32.203125 7.75 -35.953125 C 9.914062 -39.710938 12.859375 -42.710938 16.578125 -44.953125 C 20.304688 -47.203125 24.390625 -48.328125 28.828125 -48.328125 C 32.671875 -48.328125 36.1875 -47.5 39.375 -45.84375 C 42.570312 -44.195312 45.320312 -41.742188 47.625 -38.484375 L 47.625 -47.09375 L 53.5625 -47.09375 L 53.5625 0 L 47.625 0 L 47.625 -8.078125 C 45.082031 -4.992188 42.210938 -2.679688 39.015625 -1.140625 C 35.828125 0.390625 32.367188 1.15625 28.640625 1.15625 Z M 29.265625 -4.34375 C 32.515625 -4.34375 35.585938 -5.125 38.484375 -6.6875 C 41.390625 -8.257812 43.710938 -10.476562 45.453125 -13.34375 C 47.191406 -16.21875 48.0625 -19.546875 48.0625 -23.328125 C 48.0625 -26.929688 47.234375 -30.179688 45.578125 -33.078125 C 43.929688 -35.972656 41.6875 -38.265625 38.84375 -39.953125 C 36.007812 -41.640625 32.847656 -42.484375 29.359375 -42.484375 C 25.867188 -42.484375 22.6875 -41.609375 19.8125 -39.859375 C 16.945312 -38.117188 14.71875 -35.800781 13.125 -32.90625 C 11.53125 -30.007812 10.734375 -26.875 10.734375 -23.5 C 10.734375 -20.132812 11.546875 -16.988281 13.171875 -14.0625 C 14.796875 -11.132812 17.023438 -8.78125 19.859375 -7 C 22.703125 -5.226562 25.835938 -4.34375 29.265625 -4.34375 Z M 29.265625 -4.34375 "/></g></g></g><g fill="#00d8ff" fill-opacity="1"><g transform="translate(402.678619, 152.062146)"><g><path d="M 29.4375 1.234375 C 24.65625 1.234375 20.367188 0.140625 16.578125 -2.046875 C 12.796875 -4.234375 9.835938 -7.21875 7.703125 -11 C 5.578125 -14.78125 4.515625 -18.976562 4.515625 -23.59375 C 4.515625 -28.257812 5.59375 -32.46875 7.75 -36.21875 C 9.914062 -39.976562 12.921875 -42.9375 16.765625 -45.09375 C 20.609375 -47.25 24.894531 -48.328125 29.625 -48.328125 C 34.113281 -48.328125 38.207031 -47.425781 41.90625 -45.625 C 45.601562 -43.820312 48.570312 -41.328125 50.8125 -38.140625 L 46.390625 -34.328125 C 44.140625 -37.046875 41.640625 -39.082031 38.890625 -40.4375 C 36.140625 -41.800781 32.960938 -42.484375 29.359375 -42.484375 C 25.804688 -42.484375 22.625 -41.65625 19.8125 -40 C 17.007812 -38.34375 14.796875 -36.078125 13.171875 -33.203125 C 11.546875 -30.335938 10.734375 -27.132812 10.734375 -23.59375 C 10.734375 -19.925781 11.53125 -16.644531 13.125 -13.75 C 14.71875 -10.851562 16.945312 -8.601562 19.8125 -7 C 22.6875 -5.40625 25.894531 -4.609375 29.4375 -4.609375 C 36.300781 -4.609375 41.953125 -7.269531 46.390625 -12.59375 L 50.90625 -9.046875 C 48.363281 -5.796875 45.273438 -3.269531 41.640625 -1.46875 C 38.003906 0.332031 33.9375 1.234375 29.4375 1.234375 Z M 29.4375 1.234375 "/></g></g></g><g fill="#00d8ff" fill-opacity="1"><g transform="translate(457.481596, 152.062146)"><g><path d="M 12.15625 -41.765625 L 3.8125 -41.765625 L 3.8125 -47.09375 L 12.15625 -47.09375 L 12.15625 -64.65625 L 18.1875 -64.65625 L 18.1875 -47.09375 L 27.84375 -47.09375 L 27.84375 -41.765625 L 18.1875 -41.765625 L 18.1875 0 L 12.15625 0 Z M 12.15625 -41.765625 "/></g></g></g><g fill="#00d8ff" fill-opacity="1"><g transform="translate(487.543425, 152.062146)"><g><path d="M 19.0625 1.5 C 16.113281 1.5 13.289062 0.863281 10.59375 -0.40625 C 7.90625 -1.675781 5.613281 -3.253906 3.71875 -5.140625 L 7.265625 -10.46875 C 9.097656 -8.6875 11.035156 -7.28125 13.078125 -6.25 C 15.117188 -5.21875 17.144531 -4.703125 19.15625 -4.703125 C 22.164062 -4.703125 24.484375 -5.71875 26.109375 -7.75 C 27.742188 -9.789062 28.5625 -13.117188 28.5625 -17.734375 L 28.5625 -63.671875 L 34.9375 -63.671875 L 34.9375 -16.671875 C 34.9375 -4.554688 29.644531 1.5 19.0625 1.5 Z M 19.0625 1.5 "/></g></g></g><g fill="#00d8ff" fill-opacity="1"><g transform="translate(530.286206, 152.062146)"><g><path d="M 21.46875 1.59375 C 17.207031 1.59375 13.539062 0.472656 10.46875 -1.765625 C 7.394531 -4.015625 4.644531 -7.390625 2.21875 -11.890625 L 7.625 -15.171875 C 9.519531 -11.679688 11.585938 -9.046875 13.828125 -7.265625 C 16.078125 -5.492188 18.445312 -4.609375 20.9375 -4.609375 C 23.125 -4.609375 25.117188 -5.09375 26.921875 -6.0625 C 28.722656 -7.039062 30.140625 -8.359375 31.171875 -10.015625 C 32.203125 -11.671875 32.71875 -13.476562 32.71875 -15.4375 C 32.71875 -17.382812 32.171875 -19.195312 31.078125 -20.875 C 29.984375 -22.5625 28.398438 -24.304688 26.328125 -26.109375 C 24.265625 -27.921875 20.660156 -30.894531 15.515625 -35.03125 C 13.210938 -36.863281 11.425781 -38.488281 10.15625 -39.90625 C 8.882812 -41.320312 7.921875 -42.84375 7.265625 -44.46875 C 6.617188 -46.101562 6.296875 -48.070312 6.296875 -50.375 C 6.296875 -53.207031 6.972656 -55.757812 8.328125 -58.03125 C 9.691406 -60.3125 11.554688 -62.085938 13.921875 -63.359375 C 16.285156 -64.640625 18.890625 -65.28125 21.734375 -65.28125 C 25.273438 -65.28125 28.332031 -64.375 30.90625 -62.5625 C 33.476562 -60.757812 35.976562 -58.203125 38.40625 -54.890625 L 33.25 -50.90625 C 31.894531 -52.675781 30.6875 -54.09375 29.625 -55.15625 C 28.5625 -56.226562 27.363281 -57.085938 26.03125 -57.734375 C 24.695312 -58.390625 23.203125 -58.71875 21.546875 -58.71875 C 19.773438 -58.71875 18.238281 -58.347656 16.9375 -57.609375 C 15.632812 -56.867188 14.644531 -55.875 13.96875 -54.625 C 13.289062 -53.382812 12.953125 -52.054688 12.953125 -50.640625 C 12.953125 -48.628906 13.539062 -46.75 14.71875 -45 C 15.90625 -43.257812 17.617188 -41.5625 19.859375 -39.90625 C 24.597656 -36.476562 28.25 -33.640625 30.8125 -31.390625 C 33.382812 -29.148438 35.453125 -26.726562 37.015625 -24.125 C 38.585938 -21.519531 39.375 -18.648438 39.375 -15.515625 C 39.375 -12.554688 38.585938 -9.757812 37.015625 -7.125 C 35.453125 -4.5 33.3125 -2.390625 30.59375 -0.796875 C 27.875 0.796875 24.832031 1.59375 21.46875 1.59375 Z M 21.46875 1.59375 "/></g></g></g></svg>