<svg xmlns="http://www.w3.org/2000/svg" xmlns:xlink="http://www.w3.org/1999/xlink" width="851" zoomAndPan="magnify" viewBox="0 0 638.25 236.249991" height="315" preserveAspectRatio="xMidYMid meet" version="1.0"><defs><g/><clipPath id="f5da1a6210"><path d="M 24.1875 54.640625 L 150.535156 54.640625 L 150.535156 180.988281 L 24.1875 180.988281 Z M 24.1875 54.640625 " clip-rule="nonzero"/></clipPath></defs><g clip-path="url(#f5da1a6210)"><path fill="#000000" d="M 141.160156 116.679688 L 86.222656 171.613281 C 84.082031 173.757812 84.082031 177.234375 86.222656 179.382812 C 88.367188 181.527344 91.847656 181.527344 93.992188 179.382812 L 148.929688 124.449219 C 151.070312 122.300781 151.070312 118.820312 148.929688 116.679688 C 146.78125 114.535156 143.300781 114.535156 141.160156 116.679688 Z M 130.171875 56.246094 L 25.792969 160.625 C 23.648438 162.769531 23.648438 166.25 25.792969 168.398438 C 27.941406 170.539062 31.417969 170.539062 33.5625 168.398438 L 137.941406 64.015625 C 140.085938 61.875 140.085938 58.394531 137.941406 56.246094 C 135.792969 54.101562 132.316406 54.101562 130.171875 56.246094 Z M 130.171875 56.246094 " fill-opacity="1" fill-rule="nonzero"/></g><g fill="#000000" fill-opacity="1"><g transform="translate(171.246855, 148.583163)"><g><path d="M 2.921875 -8.40625 C 2.921875 -9.582031 3.332031 -10.597656 4.15625 -11.453125 C 4.976562 -12.304688 6.007812 -12.734375 7.25 -12.734375 C 8.195312 -12.734375 8.960938 -12.53125 9.546875 -12.125 C 11.796875 -10.46875 14.066406 -9.300781 16.359375 -8.625 C 18.660156 -7.945312 20.875 -7.609375 23 -7.609375 C 25.300781 -7.609375 27.082031 -8.0625 28.34375 -8.96875 C 29.613281 -9.882812 30.25 -11.113281 30.25 -12.65625 L 30.25 -12.828125 C 30.25 -13.710938 29.96875 -14.476562 29.40625 -15.125 C 28.851562 -15.769531 28.085938 -16.328125 27.109375 -16.796875 C 26.140625 -17.273438 25.019531 -17.71875 23.75 -18.125 C 22.488281 -18.539062 21.175781 -18.957031 19.8125 -19.375 C 18.101562 -19.84375 16.378906 -20.398438 14.640625 -21.046875 C 12.898438 -21.703125 11.335938 -22.546875 9.953125 -23.578125 C 8.566406 -24.609375 7.429688 -25.890625 6.546875 -27.421875 C 5.660156 -28.953125 5.21875 -30.84375 5.21875 -33.09375 L 5.21875 -33.265625 C 5.21875 -35.503906 5.644531 -37.492188 6.5 -39.234375 C 7.351562 -40.972656 8.53125 -42.460938 10.03125 -43.703125 C 11.539062 -44.941406 13.3125 -45.882812 15.34375 -46.53125 C 17.382812 -47.175781 19.554688 -47.5 21.859375 -47.5 C 24.328125 -47.5 26.828125 -47.160156 29.359375 -46.484375 C 31.898438 -45.804688 34.289062 -44.878906 36.53125 -43.703125 C 37.300781 -43.285156 37.921875 -42.738281 38.390625 -42.0625 C 38.867188 -41.382812 39.109375 -40.578125 39.109375 -39.640625 C 39.109375 -38.398438 38.675781 -37.363281 37.8125 -36.53125 C 36.957031 -35.707031 35.914062 -35.296875 34.6875 -35.296875 C 34.207031 -35.296875 33.820312 -35.335938 33.53125 -35.421875 C 33.238281 -35.515625 32.914062 -35.648438 32.5625 -35.828125 C 30.613281 -36.828125 28.707031 -37.609375 26.84375 -38.171875 C 24.988281 -38.734375 23.238281 -39.015625 21.59375 -39.015625 C 19.519531 -39.015625 17.910156 -38.585938 16.765625 -37.734375 C 15.617188 -36.878906 15.046875 -35.773438 15.046875 -34.421875 L 15.046875 -34.234375 C 15.046875 -33.347656 15.335938 -32.59375 15.921875 -31.96875 C 16.515625 -31.351562 17.296875 -30.796875 18.265625 -30.296875 C 19.242188 -29.796875 20.363281 -29.335938 21.625 -28.921875 C 22.894531 -28.515625 24.207031 -28.078125 25.5625 -27.609375 C 27.28125 -27.078125 28.992188 -26.457031 30.703125 -25.75 C 32.410156 -25.039062 33.957031 -24.171875 35.34375 -23.140625 C 36.726562 -22.109375 37.863281 -20.851562 38.75 -19.375 C 39.632812 -17.894531 40.078125 -16.097656 40.078125 -13.984375 L 40.078125 -13.796875 C 40.078125 -11.316406 39.632812 -9.160156 38.75 -7.328125 C 37.863281 -5.503906 36.640625 -3.988281 35.078125 -2.78125 C 33.515625 -1.570312 31.671875 -0.65625 29.546875 -0.03125 C 27.421875 0.582031 25.148438 0.890625 22.734375 0.890625 C 19.722656 0.890625 16.6875 0.429688 13.625 -0.484375 C 10.5625 -1.398438 7.671875 -2.800781 4.953125 -4.6875 C 4.359375 -4.976562 3.867188 -5.445312 3.484375 -6.09375 C 3.109375 -6.75 2.921875 -7.519531 2.921875 -8.40625 Z M 2.921875 -8.40625 "/></g></g></g><g fill="#000000" fill-opacity="1"><g transform="translate(215.567605, 148.583163)"><g><path d="M 12.03125 -65.03125 C 13.5625 -65.03125 14.84375 -64.507812 15.875 -63.46875 C 16.90625 -62.4375 17.421875 -61.1875 17.421875 -59.71875 L 17.421875 -39.546875 C 18.960938 -41.722656 20.867188 -43.625 23.140625 -45.25 C 25.410156 -46.875 28.375 -47.6875 32.03125 -47.6875 C 37.394531 -47.6875 41.503906 -46.09375 44.359375 -42.90625 C 47.222656 -39.71875 48.65625 -35.351562 48.65625 -29.8125 L 48.65625 -4.859375 C 48.65625 -3.328125 48.15625 -2.0625 47.15625 -1.0625 C 46.15625 -0.0625 44.882812 0.4375 43.34375 0.4375 C 41.8125 0.4375 40.53125 -0.0625 39.5 -1.0625 C 38.46875 -2.0625 37.953125 -3.328125 37.953125 -4.859375 L 37.953125 -26.546875 C 37.953125 -30.253906 37.082031 -33.082031 35.34375 -35.03125 C 33.601562 -36.976562 31.140625 -37.953125 27.953125 -37.953125 C 24.765625 -37.953125 22.210938 -36.945312 20.296875 -34.9375 C 18.378906 -32.9375 17.421875 -30.078125 17.421875 -26.359375 L 17.421875 -4.859375 C 17.421875 -3.328125 16.90625 -2.0625 15.875 -1.0625 C 14.84375 -0.0625 13.5625 0.4375 12.03125 0.4375 C 10.550781 0.4375 9.296875 -0.0625 8.265625 -1.0625 C 7.234375 -2.0625 6.71875 -3.328125 6.71875 -4.859375 L 6.71875 -59.71875 C 6.71875 -61.1875 7.21875 -62.4375 8.21875 -63.46875 C 9.226562 -64.507812 10.5 -65.03125 12.03125 -65.03125 Z M 12.03125 -65.03125 "/></g></g></g><g fill="#000000" fill-opacity="1"><g transform="translate(270.415641, 148.583163)"><g><path d="M 3.625 -13.625 C 3.625 -16.15625 4.09375 -18.363281 5.03125 -20.25 C 5.976562 -22.144531 7.289062 -23.710938 8.96875 -24.953125 C 10.65625 -26.191406 12.691406 -27.117188 15.078125 -27.734375 C 17.472656 -28.347656 20.082031 -28.65625 22.90625 -28.65625 C 25.5625 -28.65625 27.863281 -28.476562 29.8125 -28.125 C 31.757812 -27.78125 33.644531 -27.3125 35.46875 -26.71875 L 35.46875 -27.875 C 35.46875 -31.226562 34.476562 -33.757812 32.5 -35.46875 C 30.53125 -37.1875 27.660156 -38.046875 23.890625 -38.046875 C 21.828125 -38.046875 19.96875 -37.851562 18.3125 -37.46875 C 16.65625 -37.082031 15.0625 -36.65625 13.53125 -36.1875 C 12.945312 -36.007812 12.390625 -35.921875 11.859375 -35.921875 C 10.617188 -35.921875 9.554688 -36.347656 8.671875 -37.203125 C 7.785156 -38.054688 7.34375 -39.101562 7.34375 -40.34375 C 7.34375 -41.34375 7.625 -42.222656 8.1875 -42.984375 C 8.75 -43.753906 9.441406 -44.289062 10.265625 -44.59375 C 12.503906 -45.414062 14.800781 -46.078125 17.15625 -46.578125 C 19.519531 -47.078125 22.234375 -47.328125 25.296875 -47.328125 C 31.847656 -47.328125 36.90625 -45.734375 40.46875 -42.546875 C 44.039062 -39.367188 45.828125 -34.414062 45.828125 -27.6875 L 45.828125 -4.6875 C 45.828125 -3.21875 45.320312 -1.992188 44.3125 -1.015625 C 43.3125 -0.046875 42.078125 0.4375 40.609375 0.4375 C 39.078125 0.4375 37.820312 -0.015625 36.84375 -0.921875 C 35.875 -1.835938 35.390625 -2.882812 35.390625 -4.0625 L 35.390625 -5.84375 C 33.796875 -3.957031 31.757812 -2.347656 29.28125 -1.015625 C 26.800781 0.304688 23.765625 0.96875 20.171875 0.96875 C 17.984375 0.96875 15.882812 0.65625 13.875 0.03125 C 11.875 -0.582031 10.125 -1.492188 8.625 -2.703125 C 7.125 -3.910156 5.914062 -5.410156 5 -7.203125 C 4.082031 -9.003906 3.625 -11.085938 3.625 -13.453125 Z M 14.0625 -14.0625 L 14.0625 -13.890625 C 14.0625 -11.648438 14.914062 -9.910156 16.625 -8.671875 C 18.34375 -7.429688 20.523438 -6.8125 23.171875 -6.8125 C 24.941406 -6.8125 26.59375 -7.046875 28.125 -7.515625 C 29.664062 -7.992188 30.976562 -8.671875 32.0625 -9.546875 C 33.15625 -10.429688 34.023438 -11.492188 34.671875 -12.734375 C 35.328125 -13.972656 35.65625 -15.332031 35.65625 -16.8125 L 35.65625 -20 C 34.300781 -20.53125 32.722656 -20.972656 30.921875 -21.328125 C 29.117188 -21.679688 27.15625 -21.859375 25.03125 -21.859375 C 21.5 -21.859375 18.785156 -21.175781 16.890625 -19.8125 C 15.003906 -18.457031 14.0625 -16.539062 14.0625 -14.0625 Z M 14.0625 -14.0625 "/></g></g></g><g fill="#000000" fill-opacity="1"><g transform="translate(322.344341, 148.583163)"><g><path d="M 4.328125 -23.265625 L 4.328125 -23.4375 C 4.328125 -27.332031 4.929688 -30.785156 6.140625 -33.796875 C 7.359375 -36.804688 8.96875 -39.34375 10.96875 -41.40625 C 12.976562 -43.46875 15.296875 -45.03125 17.921875 -46.09375 C 20.546875 -47.15625 23.242188 -47.6875 26.015625 -47.6875 C 29.898438 -47.6875 33.109375 -46.875 35.640625 -45.25 C 38.179688 -43.625 40.28125 -41.691406 41.9375 -39.453125 L 41.9375 -59.71875 C 41.9375 -61.25 42.453125 -62.515625 43.484375 -63.515625 C 44.515625 -64.523438 45.769531 -65.03125 47.25 -65.03125 C 48.78125 -65.03125 50.0625 -64.523438 51.09375 -63.515625 C 52.125 -62.515625 52.640625 -61.25 52.640625 -59.71875 L 52.640625 -4.859375 C 52.640625 -3.328125 52.125 -2.0625 51.09375 -1.0625 C 50.0625 -0.0625 48.804688 0.4375 47.328125 0.4375 C 45.796875 0.4375 44.515625 -0.0625 43.484375 -1.0625 C 42.453125 -2.0625 41.9375 -3.328125 41.9375 -4.859375 L 41.9375 -7.78125 C 40.226562 -5.300781 38.085938 -3.222656 35.515625 -1.546875 C 32.953125 0.128906 29.785156 0.96875 26.015625 0.96875 C 23.296875 0.96875 20.625 0.4375 18 -0.625 C 15.375 -1.6875 13.054688 -3.25 11.046875 -5.3125 C 9.046875 -7.375 7.425781 -9.90625 6.1875 -12.90625 C 4.945312 -15.914062 4.328125 -19.367188 4.328125 -23.265625 Z M 28.578125 -8.3125 C 30.347656 -8.3125 32.054688 -8.664062 33.703125 -9.375 C 35.359375 -10.082031 36.804688 -11.097656 38.046875 -12.421875 C 39.285156 -13.753906 40.269531 -15.332031 41 -17.15625 C 41.738281 -18.988281 42.109375 -21.023438 42.109375 -23.265625 L 42.109375 -23.4375 C 42.109375 -25.6875 41.738281 -27.738281 41 -29.59375 C 40.269531 -31.445312 39.285156 -33.019531 38.046875 -34.3125 C 36.804688 -35.613281 35.359375 -36.617188 33.703125 -37.328125 C 32.054688 -38.035156 30.347656 -38.390625 28.578125 -38.390625 C 26.742188 -38.390625 25.015625 -38.050781 23.390625 -37.375 C 21.773438 -36.695312 20.347656 -35.707031 19.109375 -34.40625 C 17.867188 -33.113281 16.894531 -31.535156 16.1875 -29.671875 C 15.476562 -27.816406 15.125 -25.738281 15.125 -23.4375 L 15.125 -23.265625 C 15.125 -21.023438 15.476562 -18.972656 16.1875 -17.109375 C 16.894531 -15.253906 17.867188 -13.675781 19.109375 -12.375 C 20.347656 -11.082031 21.773438 -10.082031 23.390625 -9.375 C 25.015625 -8.664062 26.742188 -8.3125 28.578125 -8.3125 Z M 28.578125 -8.3125 "/></g></g></g><g fill="#000000" fill-opacity="1"><g transform="translate(381.704059, 148.583163)"><g><path d="M 28.484375 -47.6875 C 32.203125 -47.6875 35.359375 -47.140625 37.953125 -46.046875 C 40.546875 -44.953125 42.847656 -43.550781 44.859375 -41.84375 C 45.210938 -41.550781 45.578125 -41.078125 45.953125 -40.421875 C 46.335938 -39.773438 46.53125 -39.007812 46.53125 -38.125 C 46.53125 -36.769531 46.039062 -35.617188 45.0625 -34.671875 C 44.09375 -33.734375 42.929688 -33.265625 41.578125 -33.265625 C 40.285156 -33.265625 39.222656 -33.617188 38.390625 -34.328125 C 37.035156 -35.503906 35.5625 -36.460938 33.96875 -37.203125 C 32.375 -37.941406 30.519531 -38.3125 28.40625 -38.3125 C 26.457031 -38.3125 24.65625 -37.910156 23 -37.109375 C 21.351562 -36.316406 19.921875 -35.253906 18.703125 -33.921875 C 17.492188 -32.597656 16.550781 -31.035156 15.875 -29.234375 C 15.195312 -27.441406 14.859375 -25.507812 14.859375 -23.4375 L 14.859375 -23.265625 C 14.859375 -21.203125 15.195312 -19.253906 15.875 -17.421875 C 16.550781 -15.597656 17.507812 -14.003906 18.75 -12.640625 C 19.988281 -11.285156 21.460938 -10.222656 23.171875 -9.453125 C 24.890625 -8.691406 26.78125 -8.3125 28.84375 -8.3125 C 33.03125 -8.3125 36.507812 -9.695312 39.28125 -12.46875 C 39.570312 -12.769531 39.96875 -13.035156 40.46875 -13.265625 C 40.96875 -13.503906 41.546875 -13.625 42.203125 -13.625 C 43.492188 -13.625 44.582031 -13.164062 45.46875 -12.25 C 46.351562 -11.332031 46.796875 -10.226562 46.796875 -8.9375 C 46.796875 -7.519531 46.296875 -6.398438 45.296875 -5.578125 C 43.234375 -3.566406 40.859375 -1.957031 38.171875 -0.75 C 35.492188 0.457031 32.207031 1.0625 28.3125 1.0625 C 24.832031 1.0625 21.617188 0.425781 18.671875 -0.84375 C 15.722656 -2.113281 13.171875 -3.835938 11.015625 -6.015625 C 8.859375 -8.203125 7.175781 -10.769531 5.96875 -13.71875 C 4.757812 -16.664062 4.15625 -19.789062 4.15625 -23.09375 L 4.15625 -23.265625 C 4.15625 -26.566406 4.757812 -29.707031 5.96875 -32.6875 C 7.175781 -35.664062 8.867188 -38.257812 11.046875 -40.46875 C 13.234375 -42.6875 15.800781 -44.441406 18.75 -45.734375 C 21.695312 -47.035156 24.941406 -47.6875 28.484375 -47.6875 Z M 28.484375 -47.6875 "/></g></g></g><g fill="#000000" fill-opacity="1"><g transform="translate(432.217312, 148.583163)"><g><path d="M 12.03125 -47.25 C 13.5625 -47.25 14.84375 -46.726562 15.875 -45.6875 C 16.90625 -44.65625 17.421875 -43.375 17.421875 -41.84375 L 17.421875 -39.546875 C 18.960938 -41.722656 20.867188 -43.625 23.140625 -45.25 C 25.410156 -46.875 28.375 -47.6875 32.03125 -47.6875 C 37.394531 -47.6875 41.503906 -46.09375 44.359375 -42.90625 C 47.222656 -39.71875 48.65625 -35.351562 48.65625 -29.8125 L 48.65625 -4.859375 C 48.65625 -3.328125 48.15625 -2.0625 47.15625 -1.0625 C 46.15625 -0.0625 44.882812 0.4375 43.34375 0.4375 C 41.8125 0.4375 40.53125 -0.0625 39.5 -1.0625 C 38.46875 -2.0625 37.953125 -3.328125 37.953125 -4.859375 L 37.953125 -26.546875 C 37.953125 -30.253906 37.082031 -33.082031 35.34375 -35.03125 C 33.601562 -36.976562 31.140625 -37.953125 27.953125 -37.953125 C 24.765625 -37.953125 22.210938 -36.945312 20.296875 -34.9375 C 18.378906 -32.9375 17.421875 -30.078125 17.421875 -26.359375 L 17.421875 -4.859375 C 17.421875 -3.328125 16.90625 -2.0625 15.875 -1.0625 C 14.84375 -0.0625 13.5625 0.4375 12.03125 0.4375 C 10.550781 0.4375 9.296875 -0.0625 8.265625 -1.0625 C 7.234375 -2.0625 6.71875 -3.328125 6.71875 -4.859375 L 6.71875 -41.84375 C 6.71875 -43.375 7.21875 -44.65625 8.21875 -45.6875 C 9.226562 -46.726562 10.5 -47.25 12.03125 -47.25 Z M 12.03125 -47.25 "/></g></g></g><g fill="#000000" fill-opacity="1"><g transform="translate(487.065348, 148.583163)"><g><path d="M 0.53125 5.578125 L 36.71875 -68.5625 C 37.476562 -70.21875 38.773438 -71.046875 40.609375 -71.046875 C 41.785156 -71.046875 42.769531 -70.644531 43.5625 -69.84375 C 44.363281 -69.050781 44.765625 -68.09375 44.765625 -66.96875 C 44.765625 -66.320312 44.617188 -65.613281 44.328125 -64.84375 L 8.046875 9.296875 C 7.285156 10.941406 6.019531 11.765625 4.25 11.765625 C 3.070312 11.765625 2.066406 11.363281 1.234375 10.5625 C 0.410156 9.769531 0 8.816406 0 7.703125 C 0 7.285156 0.0546875 6.898438 0.171875 6.546875 C 0.296875 6.191406 0.414062 5.867188 0.53125 5.578125 Z M 0.53125 5.578125 "/></g></g></g><g fill="#000000" fill-opacity="1"><g transform="translate(533.155374, 148.583163)"><g><path d="M 6.1875 -16.984375 L 6.1875 -41.84375 C 6.1875 -43.375 6.703125 -44.65625 7.734375 -45.6875 C 8.773438 -46.726562 10.03125 -47.25 11.5 -47.25 C 13.03125 -47.25 14.3125 -46.726562 15.34375 -45.6875 C 16.375 -44.65625 16.890625 -43.375 16.890625 -41.84375 L 16.890625 -20.171875 C 16.890625 -16.453125 17.757812 -13.632812 19.5 -11.71875 C 21.25 -9.800781 23.710938 -8.84375 26.890625 -8.84375 C 30.078125 -8.84375 32.628906 -9.832031 34.546875 -11.8125 C 36.460938 -13.789062 37.421875 -16.632812 37.421875 -20.34375 L 37.421875 -41.84375 C 37.421875 -43.375 37.9375 -44.65625 38.96875 -45.6875 C 40 -46.726562 41.28125 -47.25 42.8125 -47.25 C 44.289062 -47.25 45.5625 -46.726562 46.625 -45.6875 C 47.6875 -44.65625 48.21875 -43.375 48.21875 -41.84375 L 48.21875 -4.859375 C 48.21875 -3.390625 47.703125 -2.140625 46.671875 -1.109375 C 45.640625 -0.078125 44.351562 0.4375 42.8125 0.4375 C 41.34375 0.4375 40.078125 -0.0625 39.015625 -1.0625 C 37.953125 -2.0625 37.421875 -3.328125 37.421875 -4.859375 L 37.421875 -7.25 C 35.890625 -5.007812 33.972656 -3.078125 31.671875 -1.453125 C 29.367188 0.160156 26.421875 0.96875 22.828125 0.96875 C 17.460938 0.96875 13.347656 -0.632812 10.484375 -3.84375 C 7.617188 -7.0625 6.1875 -11.441406 6.1875 -16.984375 Z M 6.1875 -16.984375 "/></g></g></g><g fill="#000000" fill-opacity="1"><g transform="translate(588.00341, 148.583163)"><g><path d="M 7.34375 -41.84375 C 7.34375 -43.375 7.84375 -44.65625 8.84375 -45.6875 C 9.84375 -46.726562 11.113281 -47.25 12.65625 -47.25 C 14.1875 -47.25 15.46875 -46.726562 16.5 -45.6875 C 17.53125 -44.65625 18.046875 -43.375 18.046875 -41.84375 L 18.046875 -4.859375 C 18.046875 -3.328125 17.53125 -2.0625 16.5 -1.0625 C 15.46875 -0.0625 14.1875 0.4375 12.65625 0.4375 C 11.175781 0.4375 9.921875 -0.0625 8.890625 -1.0625 C 7.859375 -2.0625 7.34375 -3.328125 7.34375 -4.859375 Z M 12.65625 -64.5 C 14.363281 -64.5 15.804688 -64.023438 16.984375 -63.078125 C 18.160156 -62.128906 18.75 -60.863281 18.75 -59.28125 L 18.75 -58.75 C 18.75 -57.15625 18.160156 -55.867188 16.984375 -54.890625 C 15.804688 -53.921875 14.363281 -53.4375 12.65625 -53.4375 C 10.9375 -53.4375 9.488281 -53.921875 8.3125 -54.890625 C 7.132812 -55.867188 6.546875 -57.15625 6.546875 -58.75 L 6.546875 -59.28125 C 6.546875 -60.863281 7.132812 -62.128906 8.3125 -63.078125 C 9.488281 -64.023438 10.9375 -64.5 12.65625 -64.5 Z M 12.65625 -64.5 "/></g></g></g></svg>