<svg xmlns="http://www.w3.org/2000/svg" xmlns:xlink="http://www.w3.org/1999/xlink" width="851" zoomAndPan="magnify" viewBox="0 0 638.25 236.249991" height="315" preserveAspectRatio="xMidYMid meet" version="1.0"><defs><g/></defs><path fill="#3178c6" d="M 41.90625 42.972656 L 177.671875 42.972656 C 178.132812 42.972656 178.589844 43.015625 179.042969 43.105469 C 179.496094 43.195312 179.933594 43.328125 180.359375 43.503906 C 180.785156 43.683594 181.191406 43.898438 181.574219 44.152344 C 181.957031 44.410156 182.308594 44.703125 182.636719 45.027344 C 182.960938 45.351562 183.253906 45.707031 183.507812 46.089844 C 183.765625 46.472656 183.980469 46.878906 184.15625 47.304688 C 184.335938 47.730469 184.46875 48.167969 184.558594 48.621094 C 184.648438 49.074219 184.691406 49.53125 184.691406 49.992188 L 184.691406 185.757812 C 184.691406 186.21875 184.648438 186.675781 184.558594 187.125 C 184.46875 187.578125 184.335938 188.019531 184.15625 188.445312 C 183.980469 188.871094 183.765625 189.273438 183.507812 189.65625 C 183.253906 190.039062 182.960938 190.394531 182.636719 190.722656 C 182.308594 191.046875 181.957031 191.335938 181.574219 191.59375 C 181.191406 191.851562 180.785156 192.066406 180.359375 192.242188 C 179.933594 192.417969 179.496094 192.550781 179.042969 192.640625 C 178.589844 192.730469 178.132812 192.777344 177.671875 192.777344 L 41.90625 192.777344 C 41.445312 192.777344 40.988281 192.730469 40.535156 192.640625 C 40.085938 192.550781 39.644531 192.417969 39.21875 192.242188 C 38.792969 192.066406 38.390625 191.851562 38.007812 191.59375 C 37.625 191.335938 37.269531 191.046875 36.941406 190.722656 C 36.617188 190.394531 36.324219 190.039062 36.070312 189.65625 C 35.8125 189.273438 35.597656 188.871094 35.421875 188.445312 C 35.246094 188.019531 35.113281 187.578125 35.023438 187.125 C 34.933594 186.675781 34.886719 186.21875 34.886719 185.757812 L 34.886719 49.992188 C 34.886719 49.53125 34.933594 49.074219 35.023438 48.621094 C 35.113281 48.167969 35.246094 47.730469 35.421875 47.304688 C 35.597656 46.878906 35.8125 46.472656 36.070312 46.089844 C 36.324219 45.707031 36.617188 45.351562 36.941406 45.027344 C 37.269531 44.703125 37.625 44.410156 38.007812 44.152344 C 38.390625 43.898438 38.792969 43.683594 39.21875 43.503906 C 39.644531 43.328125 40.085938 43.195312 40.535156 43.105469 C 40.988281 43.015625 41.445312 42.972656 41.90625 42.972656 Z M 41.90625 42.972656 " fill-opacity="1" fill-rule="nonzero"/><path fill="#ffffff" d="M 121.800781 159.386719 L 121.800781 175.800781 C 124.796875 177.28125 127.945312 178.304688 131.238281 178.878906 C 135.035156 179.578125 138.859375 179.921875 142.71875 179.902344 C 146.484375 179.921875 150.207031 179.546875 153.890625 178.773438 C 157.21875 178.101562 160.3125 176.855469 163.175781 175.03125 C 165.847656 173.304688 167.957031 171.046875 169.492188 168.257812 C 170.164062 166.847656 170.691406 165.390625 171.078125 163.878906 C 171.464844 162.367188 171.699219 160.832031 171.785156 159.277344 C 171.871094 157.71875 171.804688 156.167969 171.585938 154.625 C 171.367188 153.078125 171 151.570312 170.488281 150.097656 C 169.605469 147.851562 168.324219 145.859375 166.652344 144.121094 C 164.863281 142.28125 162.859375 140.71875 160.644531 139.429688 C 158.097656 137.941406 155.464844 136.632812 152.742188 135.503906 C 150.601562 134.613281 148.675781 133.75 146.960938 132.914062 C 145.4375 132.183594 143.988281 131.328125 142.613281 130.351562 C 141.527344 129.589844 140.609375 128.667969 139.851562 127.578125 C 139.1875 126.578125 138.867188 125.476562 138.882812 124.273438 C 138.871094 123.167969 139.160156 122.148438 139.75 121.21875 C 140.390625 120.25 141.207031 119.472656 142.207031 118.886719 C 143.417969 118.171875 144.714844 117.667969 146.089844 117.371094 C 147.773438 116.996094 149.480469 116.820312 151.207031 116.835938 C 152.652344 116.839844 154.09375 116.945312 155.527344 117.144531 C 157.078125 117.355469 158.605469 117.671875 160.109375 118.09375 C 161.640625 118.515625 163.128906 119.050781 164.582031 119.699219 C 165.992188 120.328125 167.328125 121.078125 168.597656 121.957031 L 168.597656 106.636719 C 165.953125 105.636719 163.234375 104.925781 160.441406 104.5 C 157.070312 104.007812 153.679688 103.777344 150.273438 103.808594 C 146.542969 103.789062 142.863281 104.207031 139.230469 105.066406 C 135.933594 105.820312 132.875 107.125 130.050781 108.988281 C 127.410156 110.746094 125.324219 113.011719 123.785156 115.789062 C 122.152344 118.875 121.382812 122.167969 121.480469 125.660156 C 121.421875 127.929688 121.753906 130.140625 122.480469 132.292969 C 123.207031 134.445312 124.277344 136.40625 125.699219 138.179688 C 129.242188 142.164062 133.515625 145.089844 138.515625 146.945312 C 140.761719 147.875 142.859375 148.78125 144.800781 149.671875 C 146.558594 150.453125 148.238281 151.375 149.839844 152.4375 C 151.140625 153.28125 152.257812 154.324219 153.191406 155.566406 C 154.027344 156.710938 154.4375 157.996094 154.421875 159.414062 C 154.429688 160.464844 154.171875 161.449219 153.652344 162.367188 C 153.074219 163.347656 152.296875 164.132812 151.324219 164.726562 C 150.117188 165.460938 148.820312 165.984375 147.4375 166.289062 C 145.644531 166.6875 143.828125 166.875 141.992188 166.851562 C 138.371094 166.84375 134.859375 166.21875 131.457031 164.976562 C 127.902344 163.695312 124.683594 161.832031 121.800781 159.386719 Z M 94.226562 118.519531 L 115.625 118.519531 L 115.625 105 L 55.957031 105 L 55.957031 118.519531 L 77.261719 118.519531 L 77.261719 178.734375 L 94.226562 178.734375 Z M 94.226562 118.519531 " fill-opacity="1" fill-rule="evenodd"/><g fill="#3178c6" fill-opacity="1"><g transform="translate(199.870358, 139.659715)"><g><path d="M 2.25 -41.4375 C 2.25 -42.425781 2.601562 -43.285156 3.3125 -44.015625 C 4.019531 -44.742188 4.890625 -45.109375 5.921875 -45.109375 L 35.890625 -45.109375 C 36.878906 -45.109375 37.726562 -44.742188 38.4375 -44.015625 C 39.144531 -43.285156 39.5 -42.425781 39.5 -41.4375 C 39.5 -40.445312 39.144531 -39.585938 38.4375 -38.859375 C 37.726562 -38.128906 36.878906 -37.765625 35.890625 -37.765625 L 24.875 -37.765625 L 24.875 -3.609375 C 24.875 -2.492188 24.484375 -1.554688 23.703125 -0.796875 C 22.929688 -0.046875 21.988281 0.328125 20.875 0.328125 C 19.757812 0.328125 18.8125 -0.046875 18.03125 -0.796875 C 17.257812 -1.554688 16.875 -2.492188 16.875 -3.609375 L 16.875 -37.765625 L 5.921875 -37.765625 C 4.890625 -37.765625 4.019531 -38.128906 3.3125 -38.859375 C 2.601562 -39.585938 2.25 -40.445312 2.25 -41.4375 Z M 2.25 -41.4375 "/></g></g></g><g fill="#3178c6" fill-opacity="1"><g transform="translate(241.621746, 139.659715)"><g><path d="M 2.0625 -41.625 C 2.0625 -42.695312 2.445312 -43.597656 3.21875 -44.328125 C 3.988281 -45.054688 4.9375 -45.421875 6.0625 -45.421875 C 6.914062 -45.421875 7.65625 -45.207031 8.28125 -44.78125 C 8.90625 -44.351562 9.453125 -43.773438 9.921875 -43.046875 L 22.484375 -24.9375 L 35.25 -43.109375 C 35.71875 -43.835938 36.253906 -44.414062 36.859375 -44.84375 C 37.460938 -45.28125 38.191406 -45.5 39.046875 -45.5 C 40.203125 -45.5 41.132812 -45.117188 41.84375 -44.359375 C 42.5625 -43.609375 42.921875 -42.695312 42.921875 -41.625 C 42.921875 -41.0625 42.8125 -40.546875 42.59375 -40.078125 C 42.375 -39.609375 42.113281 -39.179688 41.8125 -38.796875 L 26.421875 -17.71875 L 26.421875 -3.609375 C 26.421875 -2.492188 26.03125 -1.554688 25.25 -0.796875 C 24.476562 -0.046875 23.535156 0.328125 22.421875 0.328125 C 21.304688 0.328125 20.375 -0.046875 19.625 -0.796875 C 18.875 -1.554688 18.5 -2.492188 18.5 -3.609375 L 18.5 -17.53125 L 2.96875 -38.859375 C 2.707031 -39.242188 2.488281 -39.660156 2.3125 -40.109375 C 2.144531 -40.554688 2.0625 -41.0625 2.0625 -41.625 Z M 2.0625 -41.625 "/></g></g></g><g fill="#3178c6" fill-opacity="1"><g transform="translate(286.465834, 139.659715)"><g><path d="M 5.796875 -41.109375 C 5.796875 -42.222656 6.179688 -43.164062 6.953125 -43.9375 C 7.734375 -44.71875 8.679688 -45.109375 9.796875 -45.109375 L 23.578125 -45.109375 C 26.242188 -45.109375 28.628906 -44.753906 30.734375 -44.046875 C 32.835938 -43.335938 34.628906 -42.316406 36.109375 -40.984375 C 37.597656 -39.648438 38.738281 -38.054688 39.53125 -36.203125 C 40.320312 -34.359375 40.71875 -32.300781 40.71875 -30.03125 L 40.71875 -29.90625 C 40.71875 -27.40625 40.242188 -25.1875 39.296875 -23.25 C 38.359375 -21.320312 37.070312 -19.710938 35.4375 -18.421875 C 33.800781 -17.140625 31.890625 -16.164062 29.703125 -15.5 C 27.515625 -14.832031 25.175781 -14.5 22.6875 -14.5 L 13.71875 -14.5 L 13.71875 -3.609375 C 13.71875 -2.492188 13.34375 -1.554688 12.59375 -0.796875 C 11.84375 -0.046875 10.910156 0.328125 9.796875 0.328125 C 8.679688 0.328125 7.734375 -0.046875 6.953125 -0.796875 C 6.179688 -1.554688 5.796875 -2.492188 5.796875 -3.609375 Z M 13.71875 -21.65625 L 22.9375 -21.65625 C 25.945312 -21.65625 28.320312 -22.40625 30.0625 -23.90625 C 31.800781 -25.40625 32.671875 -27.335938 32.671875 -29.703125 L 32.671875 -29.828125 C 32.671875 -32.535156 31.789062 -34.554688 30.03125 -35.890625 C 28.269531 -37.222656 25.90625 -37.890625 22.9375 -37.890625 L 13.71875 -37.890625 Z M 13.71875 -21.65625 "/></g></g></g><g fill="#3178c6" fill-opacity="1"><g transform="translate(329.505837, 139.659715)"><g><path d="M 5.796875 -4 L 5.796875 -41.109375 C 5.796875 -42.222656 6.179688 -43.164062 6.953125 -43.9375 C 7.734375 -44.71875 8.679688 -45.109375 9.796875 -45.109375 L 36.015625 -45.109375 C 37.003906 -45.109375 37.84375 -44.765625 38.53125 -44.078125 C 39.21875 -43.390625 39.5625 -42.550781 39.5625 -41.5625 C 39.5625 -40.570312 39.21875 -39.734375 38.53125 -39.046875 C 37.84375 -38.359375 37.003906 -38.015625 36.015625 -38.015625 L 13.71875 -38.015625 L 13.71875 -26.296875 L 33.125 -26.296875 C 34.113281 -26.296875 34.953125 -25.9375 35.640625 -25.21875 C 36.328125 -24.507812 36.671875 -23.664062 36.671875 -22.6875 C 36.671875 -21.695312 36.328125 -20.867188 35.640625 -20.203125 C 34.953125 -19.535156 34.113281 -19.203125 33.125 -19.203125 L 13.71875 -19.203125 L 13.71875 -7.09375 L 36.34375 -7.09375 C 37.332031 -7.09375 38.171875 -6.75 38.859375 -6.0625 C 39.546875 -5.375 39.890625 -4.535156 39.890625 -3.546875 C 39.890625 -2.554688 39.546875 -1.71875 38.859375 -1.03125 C 38.171875 -0.34375 37.332031 0 36.34375 0 L 9.796875 0 C 8.679688 0 7.734375 -0.382812 6.953125 -1.15625 C 6.179688 -1.925781 5.796875 -2.875 5.796875 -4 Z M 5.796875 -4 "/></g></g></g><g fill="#3178c6" fill-opacity="1"><g transform="translate(372.674703, 139.659715)"><g><path d="M 6.828125 -11.734375 C 7.898438 -11.734375 8.675781 -11.492188 9.15625 -11.015625 C 10.914062 -9.253906 12.847656 -8.039062 14.953125 -7.375 C 17.054688 -6.707031 19.332031 -6.375 21.78125 -6.375 C 24.226562 -6.375 26.171875 -6.898438 27.609375 -7.953125 C 29.046875 -9.003906 29.765625 -10.367188 29.765625 -12.046875 L 29.765625 -12.171875 C 29.765625 -12.953125 29.625 -13.660156 29.34375 -14.296875 C 29.070312 -14.941406 28.554688 -15.546875 27.796875 -16.109375 C 27.046875 -16.671875 26.015625 -17.1875 24.703125 -17.65625 C 23.398438 -18.125 21.695312 -18.597656 19.59375 -19.078125 C 17.1875 -19.628906 15.046875 -20.257812 13.171875 -20.96875 C 11.304688 -21.675781 9.738281 -22.546875 8.46875 -23.578125 C 7.207031 -24.609375 6.242188 -25.84375 5.578125 -27.28125 C 4.910156 -28.726562 4.578125 -30.484375 4.578125 -32.546875 L 4.578125 -32.671875 C 4.578125 -34.597656 4.960938 -36.367188 5.734375 -37.984375 C 6.503906 -39.597656 7.566406 -40.972656 8.921875 -42.109375 C 10.273438 -43.242188 11.894531 -44.132812 13.78125 -44.78125 C 15.675781 -45.425781 17.738281 -45.75 19.96875 -45.75 C 22.8125 -45.75 25.390625 -45.394531 27.703125 -44.6875 C 30.023438 -43.976562 32.21875 -42.9375 34.28125 -41.5625 C 34.75 -41.300781 35.15625 -40.898438 35.5 -40.359375 C 35.84375 -39.828125 36.015625 -39.175781 36.015625 -38.40625 C 36.015625 -37.375 35.648438 -36.503906 34.921875 -35.796875 C 34.191406 -35.085938 33.3125 -34.734375 32.28125 -34.734375 C 31.550781 -34.734375 30.863281 -34.925781 30.21875 -35.3125 C 28.375 -36.425781 26.632812 -37.273438 25 -37.859375 C 23.363281 -38.441406 21.644531 -38.734375 19.84375 -38.734375 C 17.519531 -38.734375 15.710938 -38.21875 14.421875 -37.1875 C 13.140625 -36.15625 12.5 -34.882812 12.5 -33.375 L 12.5 -33.25 C 12.5 -32.394531 12.648438 -31.632812 12.953125 -30.96875 C 13.253906 -30.300781 13.8125 -29.695312 14.625 -29.15625 C 15.445312 -28.625 16.539062 -28.117188 17.90625 -27.640625 C 19.28125 -27.171875 21.066406 -26.675781 23.265625 -26.15625 C 25.628906 -25.5625 27.710938 -24.882812 29.515625 -24.125 C 31.316406 -23.375 32.816406 -22.484375 34.015625 -21.453125 C 35.222656 -20.421875 36.140625 -19.21875 36.765625 -17.84375 C 37.390625 -16.46875 37.703125 -14.835938 37.703125 -12.953125 L 37.703125 -12.828125 C 37.703125 -10.722656 37.300781 -8.832031 36.5 -7.15625 C 35.707031 -5.476562 34.601562 -4.054688 33.1875 -2.890625 C 31.769531 -1.734375 30.070312 -0.851562 28.09375 -0.25 C 26.113281 0.34375 23.945312 0.640625 21.59375 0.640625 C 18.445312 0.640625 15.476562 0.179688 12.6875 -0.734375 C 9.894531 -1.660156 7.210938 -3.09375 4.640625 -5.03125 C 3.609375 -5.800781 3.09375 -6.804688 3.09375 -8.046875 C 3.09375 -9.078125 3.457031 -9.945312 4.1875 -10.65625 C 4.914062 -11.375 5.796875 -11.734375 6.828125 -11.734375 Z M 6.828125 -11.734375 "/></g></g></g><g fill="#3178c6" fill-opacity="1"><g transform="translate(413.910644, 139.659715)"><g><path d="M 27.0625 -45.875 C 30.539062 -45.875 33.503906 -45.429688 35.953125 -44.546875 C 38.398438 -43.671875 40.59375 -42.414062 42.53125 -40.78125 C 42.957031 -40.4375 43.320312 -40.007812 43.625 -39.5 C 43.925781 -38.988281 44.078125 -38.363281 44.078125 -37.625 C 44.078125 -36.507812 43.695312 -35.585938 42.9375 -34.859375 C 42.1875 -34.128906 41.253906 -33.765625 40.140625 -33.765625 C 39.148438 -33.765625 38.359375 -34.019531 37.765625 -34.53125 C 36.253906 -35.863281 34.628906 -36.875 32.890625 -37.5625 C 31.148438 -38.25 29.1875 -38.59375 27 -38.59375 C 24.851562 -38.59375 22.863281 -38.171875 21.03125 -37.328125 C 19.207031 -36.492188 17.640625 -35.359375 16.328125 -33.921875 C 15.023438 -32.484375 13.992188 -30.796875 13.234375 -28.859375 C 12.484375 -26.929688 12.109375 -24.875 12.109375 -22.6875 L 12.109375 -22.546875 C 12.109375 -20.359375 12.484375 -18.285156 13.234375 -16.328125 C 13.992188 -14.378906 15.023438 -12.679688 16.328125 -11.234375 C 17.640625 -9.796875 19.207031 -8.660156 21.03125 -7.828125 C 22.863281 -6.992188 24.851562 -6.578125 27 -6.578125 C 29.445312 -6.578125 31.53125 -6.929688 33.25 -7.640625 C 34.96875 -8.347656 36.644531 -9.429688 38.28125 -10.890625 C 38.582031 -11.148438 38.9375 -11.363281 39.34375 -11.53125 C 39.75 -11.707031 40.1875 -11.796875 40.65625 -11.796875 C 41.644531 -11.796875 42.515625 -11.425781 43.265625 -10.6875 C 44.015625 -9.957031 44.390625 -9.101562 44.390625 -8.125 C 44.390625 -7.519531 44.257812 -6.976562 44 -6.5 C 43.75 -6.03125 43.453125 -5.625 43.109375 -5.28125 C 40.960938 -3.394531 38.609375 -1.914062 36.046875 -0.84375 C 33.492188 0.226562 30.390625 0.765625 26.734375 0.765625 C 23.472656 0.765625 20.4375 0.164062 17.625 -1.03125 C 14.8125 -2.226562 12.382812 -3.867188 10.34375 -5.953125 C 8.300781 -8.035156 6.695312 -10.492188 5.53125 -13.328125 C 4.375 -16.171875 3.796875 -19.203125 3.796875 -22.421875 L 3.796875 -22.546875 C 3.796875 -25.773438 4.363281 -28.796875 5.5 -31.609375 C 6.644531 -34.421875 8.25 -36.890625 10.3125 -39.015625 C 12.375 -41.140625 14.832031 -42.8125 17.6875 -44.03125 C 20.539062 -45.257812 23.664062 -45.875 27.0625 -45.875 Z M 27.0625 -45.875 "/></g></g></g><g fill="#3178c6" fill-opacity="1"><g transform="translate(461.460849, 139.659715)"><g><path d="M 5.796875 -41.109375 C 5.796875 -42.222656 6.179688 -43.164062 6.953125 -43.9375 C 7.734375 -44.71875 8.679688 -45.109375 9.796875 -45.109375 L 25.90625 -45.109375 C 28.175781 -45.109375 30.320312 -44.828125 32.34375 -44.265625 C 34.363281 -43.710938 36.132812 -42.84375 37.65625 -41.65625 C 39.1875 -40.476562 40.398438 -38.992188 41.296875 -37.203125 C 42.203125 -35.421875 42.65625 -33.304688 42.65625 -30.859375 L 42.65625 -30.734375 C 42.65625 -27.085938 41.71875 -24.175781 39.84375 -22 C 37.976562 -19.832031 35.5 -18.253906 32.40625 -17.265625 L 41.046875 -6.375 C 41.429688 -5.90625 41.738281 -5.429688 41.96875 -4.953125 C 42.207031 -4.484375 42.328125 -3.945312 42.328125 -3.34375 C 42.328125 -2.226562 41.941406 -1.335938 41.171875 -0.671875 C 40.398438 -0.00390625 39.519531 0.328125 38.53125 0.328125 C 37.632812 0.328125 36.882812 0.132812 36.28125 -0.25 C 35.675781 -0.644531 35.140625 -1.140625 34.671875 -1.734375 L 23.71875 -15.71875 L 13.71875 -15.71875 L 13.71875 -3.609375 C 13.71875 -2.492188 13.34375 -1.554688 12.59375 -0.796875 C 11.84375 -0.046875 10.910156 0.328125 9.796875 0.328125 C 8.679688 0.328125 7.734375 -0.046875 6.953125 -0.796875 C 6.179688 -1.554688 5.796875 -2.492188 5.796875 -3.609375 Z M 13.71875 -22.75 L 25.328125 -22.75 C 28.160156 -22.75 30.414062 -23.425781 32.09375 -24.78125 C 33.769531 -26.132812 34.609375 -27.96875 34.609375 -30.28125 L 34.609375 -30.421875 C 34.609375 -32.867188 33.789062 -34.722656 32.15625 -35.984375 C 30.519531 -37.253906 28.222656 -37.890625 25.265625 -37.890625 L 13.71875 -37.890625 Z M 13.71875 -22.75 "/></g></g></g><g fill="#3178c6" fill-opacity="1"><g transform="translate(508.044581, 139.659715)"><g><path d="M 6.25 -41.5 C 6.25 -42.613281 6.632812 -43.546875 7.40625 -44.296875 C 8.175781 -45.046875 9.125 -45.421875 10.25 -45.421875 C 11.363281 -45.421875 12.296875 -45.046875 13.046875 -44.296875 C 13.796875 -43.546875 14.171875 -42.613281 14.171875 -41.5 L 14.171875 -3.609375 C 14.171875 -2.492188 13.796875 -1.554688 13.046875 -0.796875 C 12.296875 -0.046875 11.363281 0.328125 10.25 0.328125 C 9.125 0.328125 8.175781 -0.046875 7.40625 -0.796875 C 6.632812 -1.554688 6.25 -2.492188 6.25 -3.609375 Z M 6.25 -41.5 "/></g></g></g><g fill="#3178c6" fill-opacity="1"><g transform="translate(528.469248, 139.659715)"><g><path d="M 5.796875 -41.109375 C 5.796875 -42.222656 6.179688 -43.164062 6.953125 -43.9375 C 7.734375 -44.71875 8.679688 -45.109375 9.796875 -45.109375 L 23.578125 -45.109375 C 26.242188 -45.109375 28.628906 -44.753906 30.734375 -44.046875 C 32.835938 -43.335938 34.628906 -42.316406 36.109375 -40.984375 C 37.597656 -39.648438 38.738281 -38.054688 39.53125 -36.203125 C 40.320312 -34.359375 40.71875 -32.300781 40.71875 -30.03125 L 40.71875 -29.90625 C 40.71875 -27.40625 40.242188 -25.1875 39.296875 -23.25 C 38.359375 -21.320312 37.070312 -19.710938 35.4375 -18.421875 C 33.800781 -17.140625 31.890625 -16.164062 29.703125 -15.5 C 27.515625 -14.832031 25.175781 -14.5 22.6875 -14.5 L 13.71875 -14.5 L 13.71875 -3.609375 C 13.71875 -2.492188 13.34375 -1.554688 12.59375 -0.796875 C 11.84375 -0.046875 10.910156 0.328125 9.796875 0.328125 C 8.679688 0.328125 7.734375 -0.046875 6.953125 -0.796875 C 6.179688 -1.554688 5.796875 -2.492188 5.796875 -3.609375 Z M 13.71875 -21.65625 L 22.9375 -21.65625 C 25.945312 -21.65625 28.320312 -22.40625 30.0625 -23.90625 C 31.800781 -25.40625 32.671875 -27.335938 32.671875 -29.703125 L 32.671875 -29.828125 C 32.671875 -32.535156 31.789062 -34.554688 30.03125 -35.890625 C 28.269531 -37.222656 25.90625 -37.890625 22.9375 -37.890625 L 13.71875 -37.890625 Z M 13.71875 -21.65625 "/></g></g></g><g fill="#3178c6" fill-opacity="1"><g transform="translate(571.509251, 139.659715)"><g><path d="M 2.25 -41.4375 C 2.25 -42.425781 2.601562 -43.285156 3.3125 -44.015625 C 4.019531 -44.742188 4.890625 -45.109375 5.921875 -45.109375 L 35.890625 -45.109375 C 36.878906 -45.109375 37.726562 -44.742188 38.4375 -44.015625 C 39.144531 -43.285156 39.5 -42.425781 39.5 -41.4375 C 39.5 -40.445312 39.144531 -39.585938 38.4375 -38.859375 C 37.726562 -38.128906 36.878906 -37.765625 35.890625 -37.765625 L 24.875 -37.765625 L 24.875 -3.609375 C 24.875 -2.492188 24.484375 -1.554688 23.703125 -0.796875 C 22.929688 -0.046875 21.988281 0.328125 20.875 0.328125 C 19.757812 0.328125 18.8125 -0.046875 18.03125 -0.796875 C 17.257812 -1.554688 16.875 -2.492188 16.875 -3.609375 L 16.875 -37.765625 L 5.921875 -37.765625 C 4.890625 -37.765625 4.019531 -38.128906 3.3125 -38.859375 C 2.601562 -39.585938 2.25 -40.445312 2.25 -41.4375 Z M 2.25 -41.4375 "/></g></g></g></svg>